<mxfile host="app.diagrams.net" modified="2024-03-21T00:40:04.249Z" agent="Mozilla/5.0 (Windows NT 10.0; Win64; x64) AppleWebKit/537.36 (KHTML, like Gecko) Chrome/122.0.0.0 Safari/537.36 Edg/122.0.0.0" etag="mLXXnO6dRg09bybbERhe" version="24.0.7" type="github">
  <diagram name="Page-1" id="FH0Uz6bZCP4xtk6wszht">
    <mxGraphModel dx="1980" dy="1133" grid="1" gridSize="10" guides="1" tooltips="1" connect="1" arrows="1" fold="1" page="1" pageScale="1" pageWidth="1700" pageHeight="1100" math="0" shadow="0">
      <root>
        <mxCell id="0" />
        <mxCell id="1" parent="0" />
        <mxCell id="eBvsmVMEIiwgclC12GJF-101" value="" style="rounded=0;whiteSpace=wrap;html=1;strokeWidth=2;fillColor=none;" parent="1" vertex="1">
          <mxGeometry x="40" y="330" width="650" height="690" as="geometry" />
        </mxCell>
        <mxCell id="IkORrVACjVrQeEWIYYlO-70" value="" style="rounded=0;whiteSpace=wrap;html=1;fillColor=none;strokeWidth=2;" vertex="1" parent="1">
          <mxGeometry x="710" y="330" width="480" height="690" as="geometry" />
        </mxCell>
        <mxCell id="IkORrVACjVrQeEWIYYlO-69" style="edgeStyle=orthogonalEdgeStyle;rounded=0;orthogonalLoop=1;jettySize=auto;html=1;exitX=0;exitY=0.5;exitDx=0;exitDy=0;entryX=1;entryY=0.5;entryDx=0;entryDy=0;" edge="1" parent="1" source="IkORrVACjVrQeEWIYYlO-59" target="IkORrVACjVrQeEWIYYlO-61">
          <mxGeometry relative="1" as="geometry" />
        </mxCell>
        <mxCell id="IkORrVACjVrQeEWIYYlO-59" value="" style="rounded=0;whiteSpace=wrap;html=1;fillColor=none;dashed=1;strokeWidth=2;" vertex="1" parent="1">
          <mxGeometry x="972.5" y="366.5" width="180" height="99.5" as="geometry" />
        </mxCell>
        <mxCell id="IkORrVACjVrQeEWIYYlO-48" value="" style="rounded=0;whiteSpace=wrap;html=1;fillColor=none;dashed=1;strokeWidth=2;" vertex="1" parent="1">
          <mxGeometry x="970" y="821" width="185" height="189" as="geometry" />
        </mxCell>
        <mxCell id="eBvsmVMEIiwgclC12GJF-93" value="" style="rounded=0;whiteSpace=wrap;html=1;fillColor=none;strokeWidth=2;dashed=1;" parent="1" vertex="1">
          <mxGeometry x="380" y="782.5" width="260" height="210" as="geometry" />
        </mxCell>
        <mxCell id="eBvsmVMEIiwgclC12GJF-128" style="edgeStyle=orthogonalEdgeStyle;rounded=0;orthogonalLoop=1;jettySize=auto;html=1;exitX=0.25;exitY=0;exitDx=0;exitDy=0;entryX=0.25;entryY=1;entryDx=0;entryDy=0;" parent="1" source="eBvsmVMEIiwgclC12GJF-75" target="eBvsmVMEIiwgclC12GJF-96" edge="1">
          <mxGeometry relative="1" as="geometry">
            <Array as="points">
              <mxPoint x="150" y="410" />
            </Array>
          </mxGeometry>
        </mxCell>
        <mxCell id="eBvsmVMEIiwgclC12GJF-75" value="" style="rounded=0;whiteSpace=wrap;html=1;fillColor=none;strokeWidth=2;dashed=1;" parent="1" vertex="1">
          <mxGeometry x="80" y="410" width="560" height="91" as="geometry" />
        </mxCell>
        <mxCell id="eBvsmVMEIiwgclC12GJF-81" value="" style="rounded=0;whiteSpace=wrap;html=1;fillColor=none;strokeWidth=2;dashed=1;" parent="1" vertex="1">
          <mxGeometry x="80" y="780" width="260" height="210" as="geometry" />
        </mxCell>
        <mxCell id="IkORrVACjVrQeEWIYYlO-75" style="edgeStyle=orthogonalEdgeStyle;rounded=0;orthogonalLoop=1;jettySize=auto;html=1;exitX=0.5;exitY=0;exitDx=0;exitDy=0;entryX=0.5;entryY=1;entryDx=0;entryDy=0;" edge="1" parent="1" source="eBvsmVMEIiwgclC12GJF-55" target="eBvsmVMEIiwgclC12GJF-75">
          <mxGeometry relative="1" as="geometry" />
        </mxCell>
        <mxCell id="eBvsmVMEIiwgclC12GJF-55" value="" style="rounded=0;whiteSpace=wrap;html=1;fillColor=none;strokeWidth=2;dashed=1;" parent="1" vertex="1">
          <mxGeometry x="80" y="520" width="560" height="240" as="geometry" />
        </mxCell>
        <mxCell id="eBvsmVMEIiwgclC12GJF-92" style="edgeStyle=orthogonalEdgeStyle;rounded=0;orthogonalLoop=1;jettySize=auto;html=1;exitX=0.75;exitY=0;exitDx=0;exitDy=0;entryX=0.75;entryY=1;entryDx=0;entryDy=0;" parent="1" source="eBvsmVMEIiwgclC12GJF-67" target="eBvsmVMEIiwgclC12GJF-66" edge="1">
          <mxGeometry relative="1" as="geometry" />
        </mxCell>
        <mxCell id="eBvsmVMEIiwgclC12GJF-67" value="" style="rounded=0;whiteSpace=wrap;html=1;fillColor=none;" parent="1" vertex="1">
          <mxGeometry x="440" y="903" width="150" height="70" as="geometry" />
        </mxCell>
        <mxCell id="eBvsmVMEIiwgclC12GJF-85" style="edgeStyle=orthogonalEdgeStyle;rounded=0;orthogonalLoop=1;jettySize=auto;html=1;exitX=0.25;exitY=1;exitDx=0;exitDy=0;entryX=0.25;entryY=0;entryDx=0;entryDy=0;" parent="1" source="eBvsmVMEIiwgclC12GJF-66" target="eBvsmVMEIiwgclC12GJF-67" edge="1">
          <mxGeometry relative="1" as="geometry" />
        </mxCell>
        <mxCell id="eBvsmVMEIiwgclC12GJF-66" value="" style="rounded=0;whiteSpace=wrap;html=1;fillColor=none;" parent="1" vertex="1">
          <mxGeometry x="440" y="810" width="150" height="70" as="geometry" />
        </mxCell>
        <mxCell id="eBvsmVMEIiwgclC12GJF-6" value="&lt;font style=&quot;&quot; face=&quot;Tahoma&quot;&gt;Services&lt;/font&gt;" style="text;html=1;align=center;verticalAlign=middle;whiteSpace=wrap;rounded=0;" parent="1" vertex="1">
          <mxGeometry x="80" y="410" width="60" height="30" as="geometry" />
        </mxCell>
        <mxCell id="eBvsmVMEIiwgclC12GJF-7" value="&lt;span style=&quot;background-color: initial;&quot;&gt;Service&lt;/span&gt;&lt;div&gt;LoadBalancer&lt;/div&gt;&lt;div&gt;Port 22&lt;/div&gt;" style="rounded=0;whiteSpace=wrap;html=1;" parent="1" vertex="1">
          <mxGeometry x="395" y="421" width="170" height="65" as="geometry" />
        </mxCell>
        <mxCell id="eBvsmVMEIiwgclC12GJF-16" value="Headless&amp;nbsp;&lt;span style=&quot;background-color: initial;&quot;&gt;Service&amp;nbsp;&lt;/span&gt;&lt;div&gt;&lt;span style=&quot;background-color: initial;&quot;&gt;ClusterIP&amp;nbsp;&lt;/span&gt;&lt;div&gt;&lt;span style=&quot;background-color: initial;&quot;&gt;Port 9851&lt;/span&gt;&lt;/div&gt;&lt;/div&gt;" style="rounded=0;whiteSpace=wrap;html=1;" parent="1" vertex="1">
          <mxGeometry x="155" y="421" width="170" height="65" as="geometry" />
        </mxCell>
        <mxCell id="eBvsmVMEIiwgclC12GJF-19" value="&lt;font style=&quot;&quot; face=&quot;Tahoma&quot;&gt;Statefulset&lt;/font&gt;" style="text;html=1;align=center;verticalAlign=middle;whiteSpace=wrap;rounded=0;" parent="1" vertex="1">
          <mxGeometry x="85" y="520" width="60" height="30" as="geometry" />
        </mxCell>
        <mxCell id="eBvsmVMEIiwgclC12GJF-29" value="" style="rounded=0;whiteSpace=wrap;html=1;fillColor=none;" parent="1" vertex="1">
          <mxGeometry x="120" y="550" width="230" height="190" as="geometry" />
        </mxCell>
        <mxCell id="eBvsmVMEIiwgclC12GJF-30" value="" style="aspect=fixed;sketch=0;html=1;dashed=0;whitespace=wrap;fillColor=#2875E2;strokeColor=#ffffff;points=[[0.005,0.63,0],[0.1,0.2,0],[0.9,0.2,0],[0.5,0,0],[0.995,0.63,0],[0.72,0.99,0],[0.5,1,0],[0.28,0.99,0]];shape=mxgraph.kubernetes.icon2;prIcon=pod" parent="1" vertex="1">
          <mxGeometry x="160" y="569" width="50" height="48" as="geometry" />
        </mxCell>
        <mxCell id="eBvsmVMEIiwgclC12GJF-32" value="&lt;font face=&quot;Tahoma&quot;&gt;voma&lt;/font&gt;" style="text;html=1;align=center;verticalAlign=middle;whiteSpace=wrap;rounded=0;" parent="1" vertex="1">
          <mxGeometry x="155" y="614" width="60" height="30" as="geometry" />
        </mxCell>
        <mxCell id="eBvsmVMEIiwgclC12GJF-34" value="" style="aspect=fixed;sketch=0;html=1;dashed=0;whitespace=wrap;fillColor=#2875E2;strokeColor=#ffffff;points=[[0.005,0.63,0],[0.1,0.2,0],[0.9,0.2,0],[0.5,0,0],[0.995,0.63,0],[0.72,0.99,0],[0.5,1,0],[0.28,0.99,0]];shape=mxgraph.kubernetes.icon2;prIcon=pod" parent="1" vertex="1">
          <mxGeometry x="265" y="569" width="50" height="48" as="geometry" />
        </mxCell>
        <mxCell id="eBvsmVMEIiwgclC12GJF-35" value="&lt;font face=&quot;Tahoma&quot;&gt;voma-ssh&lt;/font&gt;" style="text;html=1;align=center;verticalAlign=middle;whiteSpace=wrap;rounded=0;" parent="1" vertex="1">
          <mxGeometry x="260" y="614" width="60" height="30" as="geometry" />
        </mxCell>
        <mxCell id="eBvsmVMEIiwgclC12GJF-36" value="" style="aspect=fixed;sketch=0;html=1;dashed=0;whitespace=wrap;fillColor=#2875E2;strokeColor=#ffffff;points=[[0.005,0.63,0],[0.1,0.2,0],[0.9,0.2,0],[0.5,0,0],[0.995,0.63,0],[0.72,0.99,0],[0.5,1,0],[0.28,0.99,0]];shape=mxgraph.kubernetes.icon2;prIcon=pod" parent="1" vertex="1">
          <mxGeometry x="210" y="625" width="50" height="48" as="geometry" />
        </mxCell>
        <mxCell id="eBvsmVMEIiwgclC12GJF-37" value="&lt;font face=&quot;Tahoma&quot;&gt;voma-cron&lt;/font&gt;" style="text;html=1;align=center;verticalAlign=middle;whiteSpace=wrap;rounded=0;" parent="1" vertex="1">
          <mxGeometry x="205" y="670" width="60" height="30" as="geometry" />
        </mxCell>
        <mxCell id="eBvsmVMEIiwgclC12GJF-38" value="&lt;font style=&quot;&quot; face=&quot;Tahoma&quot;&gt;Pod-1 voma-0&lt;/font&gt;" style="text;html=1;align=center;verticalAlign=middle;whiteSpace=wrap;rounded=0;" parent="1" vertex="1">
          <mxGeometry x="210" y="700" width="60" height="30" as="geometry" />
        </mxCell>
        <mxCell id="eBvsmVMEIiwgclC12GJF-47" value="" style="rounded=0;whiteSpace=wrap;html=1;fillColor=none;" parent="1" vertex="1">
          <mxGeometry x="370" y="550" width="230" height="190" as="geometry" />
        </mxCell>
        <mxCell id="eBvsmVMEIiwgclC12GJF-48" value="" style="aspect=fixed;sketch=0;html=1;dashed=0;whitespace=wrap;fillColor=#2875E2;strokeColor=#ffffff;points=[[0.005,0.63,0],[0.1,0.2,0],[0.9,0.2,0],[0.5,0,0],[0.995,0.63,0],[0.72,0.99,0],[0.5,1,0],[0.28,0.99,0]];shape=mxgraph.kubernetes.icon2;prIcon=pod" parent="1" vertex="1">
          <mxGeometry x="410" y="569" width="50" height="48" as="geometry" />
        </mxCell>
        <mxCell id="eBvsmVMEIiwgclC12GJF-49" value="&lt;font face=&quot;Tahoma&quot;&gt;voma&lt;/font&gt;" style="text;html=1;align=center;verticalAlign=middle;whiteSpace=wrap;rounded=0;" parent="1" vertex="1">
          <mxGeometry x="405" y="614" width="60" height="30" as="geometry" />
        </mxCell>
        <mxCell id="eBvsmVMEIiwgclC12GJF-50" value="" style="aspect=fixed;sketch=0;html=1;dashed=0;whitespace=wrap;fillColor=#2875E2;strokeColor=#ffffff;points=[[0.005,0.63,0],[0.1,0.2,0],[0.9,0.2,0],[0.5,0,0],[0.995,0.63,0],[0.72,0.99,0],[0.5,1,0],[0.28,0.99,0]];shape=mxgraph.kubernetes.icon2;prIcon=pod" parent="1" vertex="1">
          <mxGeometry x="515" y="569" width="50" height="48" as="geometry" />
        </mxCell>
        <mxCell id="eBvsmVMEIiwgclC12GJF-51" value="&lt;font face=&quot;Tahoma&quot;&gt;voma-ssh&lt;/font&gt;" style="text;html=1;align=center;verticalAlign=middle;whiteSpace=wrap;rounded=0;" parent="1" vertex="1">
          <mxGeometry x="510" y="614" width="60" height="30" as="geometry" />
        </mxCell>
        <mxCell id="eBvsmVMEIiwgclC12GJF-52" value="" style="aspect=fixed;sketch=0;html=1;dashed=0;whitespace=wrap;fillColor=#2875E2;strokeColor=#ffffff;points=[[0.005,0.63,0],[0.1,0.2,0],[0.9,0.2,0],[0.5,0,0],[0.995,0.63,0],[0.72,0.99,0],[0.5,1,0],[0.28,0.99,0]];shape=mxgraph.kubernetes.icon2;prIcon=pod" parent="1" vertex="1">
          <mxGeometry x="460" y="625" width="50" height="48" as="geometry" />
        </mxCell>
        <mxCell id="eBvsmVMEIiwgclC12GJF-53" value="&lt;font face=&quot;Tahoma&quot;&gt;voma-cron&lt;/font&gt;" style="text;html=1;align=center;verticalAlign=middle;whiteSpace=wrap;rounded=0;" parent="1" vertex="1">
          <mxGeometry x="455" y="670" width="60" height="30" as="geometry" />
        </mxCell>
        <mxCell id="eBvsmVMEIiwgclC12GJF-54" value="&lt;font style=&quot;&quot; face=&quot;Tahoma&quot;&gt;Pod-2 voma-1&lt;/font&gt;" style="text;html=1;align=center;verticalAlign=middle;whiteSpace=wrap;rounded=0;" parent="1" vertex="1">
          <mxGeometry x="460" y="700" width="60" height="30" as="geometry" />
        </mxCell>
        <mxCell id="eBvsmVMEIiwgclC12GJF-58" value="" style="aspect=fixed;sketch=0;html=1;dashed=0;whitespace=wrap;fillColor=#2875E2;strokeColor=#ffffff;points=[[0.005,0.63,0],[0.1,0.2,0],[0.9,0.2,0],[0.5,0,0],[0.995,0.63,0],[0.72,0.99,0],[0.5,1,0],[0.28,0.99,0]];shape=mxgraph.kubernetes.icon2;kubernetesLabel=1;prIcon=pvc" parent="1" vertex="1">
          <mxGeometry x="453" y="822" width="50" height="48" as="geometry" />
        </mxCell>
        <mxCell id="eBvsmVMEIiwgclC12GJF-59" value="" style="aspect=fixed;sketch=0;html=1;dashed=0;whitespace=wrap;fillColor=#2875E2;strokeColor=#ffffff;points=[[0.005,0.63,0],[0.1,0.2,0],[0.9,0.2,0],[0.5,0,0],[0.995,0.63,0],[0.72,0.99,0],[0.5,1,0],[0.28,0.99,0]];shape=mxgraph.kubernetes.icon2;kubernetesLabel=1;prIcon=pv" parent="1" vertex="1">
          <mxGeometry x="453" y="914" width="50" height="48" as="geometry" />
        </mxCell>
        <mxCell id="eBvsmVMEIiwgclC12GJF-62" value="Persistent Volume Claim" style="text;html=1;align=center;verticalAlign=middle;whiteSpace=wrap;rounded=0;" parent="1" vertex="1">
          <mxGeometry x="510" y="830" width="60" height="30" as="geometry" />
        </mxCell>
        <mxCell id="eBvsmVMEIiwgclC12GJF-65" value="Persistent Volume" style="text;html=1;align=center;verticalAlign=middle;whiteSpace=wrap;rounded=0;" parent="1" vertex="1">
          <mxGeometry x="510" y="923" width="60" height="30" as="geometry" />
        </mxCell>
        <mxCell id="eBvsmVMEIiwgclC12GJF-80" value="" style="aspect=fixed;sketch=0;html=1;dashed=0;whitespace=wrap;fillColor=#2875E2;strokeColor=#ffffff;points=[[0.005,0.63,0],[0.1,0.2,0],[0.9,0.2,0],[0.5,0,0],[0.995,0.63,0],[0.72,0.99,0],[0.5,1,0],[0.28,0.99,0]];shape=mxgraph.kubernetes.icon2;prIcon=vol" parent="1" vertex="1">
          <mxGeometry x="145" y="861" width="50" height="48" as="geometry" />
        </mxCell>
        <mxCell id="eBvsmVMEIiwgclC12GJF-82" value="Volume - Input" style="text;html=1;align=center;verticalAlign=middle;whiteSpace=wrap;rounded=0;" parent="1" vertex="1">
          <mxGeometry x="69" y="780" width="120" height="30" as="geometry" />
        </mxCell>
        <mxCell id="eBvsmVMEIiwgclC12GJF-83" value="Ramdisk" style="text;html=1;align=center;verticalAlign=middle;whiteSpace=wrap;rounded=0;" parent="1" vertex="1">
          <mxGeometry x="195" y="870" width="60" height="30" as="geometry" />
        </mxCell>
        <mxCell id="eBvsmVMEIiwgclC12GJF-91" value="Volume - Ouput" style="text;html=1;align=center;verticalAlign=middle;whiteSpace=wrap;rounded=0;" parent="1" vertex="1">
          <mxGeometry x="390" y="780" width="90" height="30" as="geometry" />
        </mxCell>
        <mxCell id="eBvsmVMEIiwgclC12GJF-94" style="edgeStyle=orthogonalEdgeStyle;rounded=0;orthogonalLoop=1;jettySize=auto;html=1;exitX=0.25;exitY=1;exitDx=0;exitDy=0;entryX=0.538;entryY=0;entryDx=0;entryDy=0;entryPerimeter=0;" parent="1" source="eBvsmVMEIiwgclC12GJF-55" target="eBvsmVMEIiwgclC12GJF-81" edge="1">
          <mxGeometry relative="1" as="geometry" />
        </mxCell>
        <mxCell id="eBvsmVMEIiwgclC12GJF-96" value="&lt;span style=&quot;color: rgba(0, 0, 0, 0); font-family: monospace; font-size: 0px; text-align: start; text-wrap: nowrap;&quot;&gt;%3CmxGraphModel%3E%3Croot%3E%3CmxCell%20id%3D%220%22%2F%3E%3CmxCell%20id%3D%221%22%20parent%3D%220%22%2F%3E%3CmxCell%20id%3D%222%22%20value%3D%22MetalLB%20Service%22%20style%3D%22text%3Bhtml%3D1%3Balign%3Dcenter%3BverticalAlign%3Dmiddle%3BwhiteSpace%3Dwrap%3Brounded%3D0%3B%22%20vertex%3D%221%22%20parent%3D%221%22%3E%3CmxGeometry%20x%3D%22818%22%20y%3D%22265%22%20width%3D%22107%22%20height%3D%2230%22%20as%3D%22geometry%22%2F%3E%3C%2FmxCell%3E%3C%2Froot%3E%3C%2FmxGraphModel%3E&lt;/span&gt;" style="rounded=0;whiteSpace=wrap;html=1;strokeWidth=2;" parent="1" vertex="1">
          <mxGeometry x="85" y="250" width="260" height="60" as="geometry" />
        </mxCell>
        <mxCell id="eBvsmVMEIiwgclC12GJF-117" value="" style="edgeStyle=orthogonalEdgeStyle;rounded=0;orthogonalLoop=1;jettySize=auto;html=1;" parent="1" source="eBvsmVMEIiwgclC12GJF-97" target="eBvsmVMEIiwgclC12GJF-116" edge="1">
          <mxGeometry relative="1" as="geometry" />
        </mxCell>
        <mxCell id="eBvsmVMEIiwgclC12GJF-97" value="Monitoring" style="rounded=1;whiteSpace=wrap;html=1;fillColor=none;strokeWidth=2;" parent="1" vertex="1">
          <mxGeometry x="420" y="340" width="220" height="50" as="geometry" />
        </mxCell>
        <mxCell id="eBvsmVMEIiwgclC12GJF-103" value="Namespace" style="text;html=1;align=center;verticalAlign=middle;whiteSpace=wrap;rounded=0;" parent="1" vertex="1">
          <mxGeometry x="50" y="330" width="60" height="30" as="geometry" />
        </mxCell>
        <mxCell id="eBvsmVMEIiwgclC12GJF-115" value="" style="aspect=fixed;sketch=0;html=1;dashed=0;whitespace=wrap;fillColor=#2875E2;strokeColor=#ffffff;points=[[0.005,0.63,0],[0.1,0.2,0],[0.9,0.2,0],[0.5,0,0],[0.995,0.63,0],[0.72,0.99,0],[0.5,1,0],[0.28,0.99,0]];shape=mxgraph.kubernetes.icon2;prIcon=svc" parent="1" vertex="1">
          <mxGeometry x="135" y="256" width="50" height="48" as="geometry" />
        </mxCell>
        <mxCell id="eBvsmVMEIiwgclC12GJF-116" value="OSSI" style="rounded=1;whiteSpace=wrap;html=1;fillColor=none;strokeWidth=2;" parent="1" vertex="1">
          <mxGeometry x="187.5" y="340" width="205" height="50" as="geometry" />
        </mxCell>
        <mxCell id="eBvsmVMEIiwgclC12GJF-122" style="edgeStyle=orthogonalEdgeStyle;rounded=0;orthogonalLoop=1;jettySize=auto;html=1;exitX=0.75;exitY=0;exitDx=0;exitDy=0;entryX=0.35;entryY=1.02;entryDx=0;entryDy=0;entryPerimeter=0;" parent="1" source="eBvsmVMEIiwgclC12GJF-75" target="eBvsmVMEIiwgclC12GJF-97" edge="1">
          <mxGeometry relative="1" as="geometry" />
        </mxCell>
        <mxCell id="eBvsmVMEIiwgclC12GJF-127" style="edgeStyle=orthogonalEdgeStyle;rounded=0;orthogonalLoop=1;jettySize=auto;html=1;exitX=0.5;exitY=0;exitDx=0;exitDy=0;entryX=0.788;entryY=1.033;entryDx=0;entryDy=0;entryPerimeter=0;" parent="1" source="eBvsmVMEIiwgclC12GJF-116" target="eBvsmVMEIiwgclC12GJF-96" edge="1">
          <mxGeometry relative="1" as="geometry" />
        </mxCell>
        <mxCell id="eBvsmVMEIiwgclC12GJF-129" value="" style="rounded=0;whiteSpace=wrap;html=1;fillColor=none;" parent="1" vertex="1">
          <mxGeometry x="135" y="855" width="145" height="65" as="geometry" />
        </mxCell>
        <mxCell id="IkORrVACjVrQeEWIYYlO-52" style="edgeStyle=orthogonalEdgeStyle;rounded=0;orthogonalLoop=1;jettySize=auto;html=1;exitX=0.75;exitY=1;exitDx=0;exitDy=0;" edge="1" parent="1" source="IkORrVACjVrQeEWIYYlO-1">
          <mxGeometry relative="1" as="geometry">
            <mxPoint x="1052.5714285714287" y="820" as="targetPoint" />
          </mxGeometry>
        </mxCell>
        <mxCell id="IkORrVACjVrQeEWIYYlO-55" style="edgeStyle=orthogonalEdgeStyle;rounded=0;orthogonalLoop=1;jettySize=auto;html=1;exitX=0.5;exitY=0;exitDx=0;exitDy=0;entryX=0.5;entryY=1;entryDx=0;entryDy=0;" edge="1" parent="1" source="IkORrVACjVrQeEWIYYlO-1" target="IkORrVACjVrQeEWIYYlO-38">
          <mxGeometry relative="1" as="geometry" />
        </mxCell>
        <mxCell id="IkORrVACjVrQeEWIYYlO-1" value="" style="rounded=0;whiteSpace=wrap;html=1;fillColor=none;strokeWidth=2;dashed=1;" vertex="1" parent="1">
          <mxGeometry x="745" y="610" width="410" height="190" as="geometry" />
        </mxCell>
        <mxCell id="IkORrVACjVrQeEWIYYlO-35" style="edgeStyle=orthogonalEdgeStyle;rounded=0;orthogonalLoop=1;jettySize=auto;html=1;exitX=1;exitY=0.5;exitDx=0;exitDy=0;entryX=0;entryY=0.5;entryDx=0;entryDy=0;" edge="1" parent="1" source="IkORrVACjVrQeEWIYYlO-2" target="IkORrVACjVrQeEWIYYlO-23">
          <mxGeometry relative="1" as="geometry" />
        </mxCell>
        <mxCell id="IkORrVACjVrQeEWIYYlO-2" value="" style="rounded=0;whiteSpace=wrap;html=1;fillColor=none;" vertex="1" parent="1">
          <mxGeometry x="790" y="640" width="140" height="60" as="geometry" />
        </mxCell>
        <mxCell id="IkORrVACjVrQeEWIYYlO-3" value="" style="aspect=fixed;sketch=0;html=1;dashed=0;whitespace=wrap;fillColor=#2875E2;strokeColor=#ffffff;points=[[0.005,0.63,0],[0.1,0.2,0],[0.9,0.2,0],[0.5,0,0],[0.995,0.63,0],[0.72,0.99,0],[0.5,1,0],[0.28,0.99,0]];shape=mxgraph.kubernetes.icon2;prIcon=pod" vertex="1" parent="1">
          <mxGeometry x="800" y="646" width="50" height="48" as="geometry" />
        </mxCell>
        <mxCell id="IkORrVACjVrQeEWIYYlO-4" value="&lt;font face=&quot;Tahoma&quot;&gt;Prometheus&lt;/font&gt;" style="text;html=1;align=center;verticalAlign=middle;whiteSpace=wrap;rounded=0;" vertex="1" parent="1">
          <mxGeometry x="853" y="655" width="60" height="30" as="geometry" />
        </mxCell>
        <mxCell id="IkORrVACjVrQeEWIYYlO-12" value="" style="rounded=0;whiteSpace=wrap;html=1;fillColor=none;" vertex="1" parent="1">
          <mxGeometry x="990" y="923" width="150" height="70" as="geometry" />
        </mxCell>
        <mxCell id="IkORrVACjVrQeEWIYYlO-13" value="" style="rounded=0;whiteSpace=wrap;html=1;fillColor=none;" vertex="1" parent="1">
          <mxGeometry x="990" y="843" width="150" height="70" as="geometry" />
        </mxCell>
        <mxCell id="IkORrVACjVrQeEWIYYlO-14" value="" style="aspect=fixed;sketch=0;html=1;dashed=0;whitespace=wrap;fillColor=#2875E2;strokeColor=#ffffff;points=[[0.005,0.63,0],[0.1,0.2,0],[0.9,0.2,0],[0.5,0,0],[0.995,0.63,0],[0.72,0.99,0],[0.5,1,0],[0.28,0.99,0]];shape=mxgraph.kubernetes.icon2;kubernetesLabel=1;prIcon=pvc" vertex="1" parent="1">
          <mxGeometry x="1003" y="855" width="50" height="48" as="geometry" />
        </mxCell>
        <mxCell id="IkORrVACjVrQeEWIYYlO-15" value="" style="aspect=fixed;sketch=0;html=1;dashed=0;whitespace=wrap;fillColor=#2875E2;strokeColor=#ffffff;points=[[0.005,0.63,0],[0.1,0.2,0],[0.9,0.2,0],[0.5,0,0],[0.995,0.63,0],[0.72,0.99,0],[0.5,1,0],[0.28,0.99,0]];shape=mxgraph.kubernetes.icon2;kubernetesLabel=1;prIcon=pv" vertex="1" parent="1">
          <mxGeometry x="1003" y="934" width="50" height="48" as="geometry" />
        </mxCell>
        <mxCell id="IkORrVACjVrQeEWIYYlO-16" value="Persistent Volume" style="text;html=1;align=center;verticalAlign=middle;whiteSpace=wrap;rounded=0;" vertex="1" parent="1">
          <mxGeometry x="1060" y="943" width="60" height="30" as="geometry" />
        </mxCell>
        <mxCell id="IkORrVACjVrQeEWIYYlO-17" value="Persistent Volume Claim" style="text;html=1;align=center;verticalAlign=middle;whiteSpace=wrap;rounded=0;" vertex="1" parent="1">
          <mxGeometry x="1060" y="864" width="60" height="30" as="geometry" />
        </mxCell>
        <mxCell id="IkORrVACjVrQeEWIYYlO-18" value="&lt;font style=&quot;&quot; face=&quot;Tahoma&quot;&gt;Deployment&lt;/font&gt;" style="text;html=1;align=center;verticalAlign=middle;whiteSpace=wrap;rounded=0;" vertex="1" parent="1">
          <mxGeometry x="756" y="605" width="60" height="30" as="geometry" />
        </mxCell>
        <mxCell id="IkORrVACjVrQeEWIYYlO-37" style="edgeStyle=orthogonalEdgeStyle;rounded=0;orthogonalLoop=1;jettySize=auto;html=1;exitX=0.5;exitY=0;exitDx=0;exitDy=0;entryX=0.5;entryY=1;entryDx=0;entryDy=0;" edge="1" parent="1" source="IkORrVACjVrQeEWIYYlO-20" target="IkORrVACjVrQeEWIYYlO-2">
          <mxGeometry relative="1" as="geometry" />
        </mxCell>
        <mxCell id="IkORrVACjVrQeEWIYYlO-20" value="" style="rounded=0;whiteSpace=wrap;html=1;fillColor=none;" vertex="1" parent="1">
          <mxGeometry x="790" y="720" width="140" height="60" as="geometry" />
        </mxCell>
        <mxCell id="IkORrVACjVrQeEWIYYlO-21" value="" style="aspect=fixed;sketch=0;html=1;dashed=0;whitespace=wrap;fillColor=#2875E2;strokeColor=#ffffff;points=[[0.005,0.63,0],[0.1,0.2,0],[0.9,0.2,0],[0.5,0,0],[0.995,0.63,0],[0.72,0.99,0],[0.5,1,0],[0.28,0.99,0]];shape=mxgraph.kubernetes.icon2;prIcon=pod" vertex="1" parent="1">
          <mxGeometry x="800" y="726" width="50" height="48" as="geometry" />
        </mxCell>
        <mxCell id="IkORrVACjVrQeEWIYYlO-22" value="&lt;font face=&quot;Tahoma&quot;&gt;Kube State Metrics&lt;/font&gt;" style="text;html=1;align=center;verticalAlign=middle;whiteSpace=wrap;rounded=0;" vertex="1" parent="1">
          <mxGeometry x="853" y="735" width="60" height="30" as="geometry" />
        </mxCell>
        <mxCell id="IkORrVACjVrQeEWIYYlO-23" value="" style="rounded=0;whiteSpace=wrap;html=1;fillColor=none;" vertex="1" parent="1">
          <mxGeometry x="980" y="640" width="140" height="60" as="geometry" />
        </mxCell>
        <mxCell id="IkORrVACjVrQeEWIYYlO-24" value="" style="aspect=fixed;sketch=0;html=1;dashed=0;whitespace=wrap;fillColor=#2875E2;strokeColor=#ffffff;points=[[0.005,0.63,0],[0.1,0.2,0],[0.9,0.2,0],[0.5,0,0],[0.995,0.63,0],[0.72,0.99,0],[0.5,1,0],[0.28,0.99,0]];shape=mxgraph.kubernetes.icon2;prIcon=pod" vertex="1" parent="1">
          <mxGeometry x="990" y="646" width="50" height="48" as="geometry" />
        </mxCell>
        <mxCell id="IkORrVACjVrQeEWIYYlO-25" value="&lt;font face=&quot;Tahoma&quot;&gt;Alert Manager&lt;/font&gt;" style="text;html=1;align=center;verticalAlign=middle;whiteSpace=wrap;rounded=0;" vertex="1" parent="1">
          <mxGeometry x="1043" y="655" width="60" height="30" as="geometry" />
        </mxCell>
        <mxCell id="IkORrVACjVrQeEWIYYlO-36" style="edgeStyle=orthogonalEdgeStyle;rounded=0;orthogonalLoop=1;jettySize=auto;html=1;exitX=0;exitY=0.5;exitDx=0;exitDy=0;entryX=1;entryY=0.75;entryDx=0;entryDy=0;" edge="1" parent="1" source="IkORrVACjVrQeEWIYYlO-26" target="IkORrVACjVrQeEWIYYlO-2">
          <mxGeometry relative="1" as="geometry" />
        </mxCell>
        <mxCell id="IkORrVACjVrQeEWIYYlO-26" value="" style="rounded=0;whiteSpace=wrap;html=1;fillColor=none;" vertex="1" parent="1">
          <mxGeometry x="980" y="720" width="140" height="60" as="geometry" />
        </mxCell>
        <mxCell id="IkORrVACjVrQeEWIYYlO-27" value="" style="aspect=fixed;sketch=0;html=1;dashed=0;whitespace=wrap;fillColor=#2875E2;strokeColor=#ffffff;points=[[0.005,0.63,0],[0.1,0.2,0],[0.9,0.2,0],[0.5,0,0],[0.995,0.63,0],[0.72,0.99,0],[0.5,1,0],[0.28,0.99,0]];shape=mxgraph.kubernetes.icon2;prIcon=pod" vertex="1" parent="1">
          <mxGeometry x="990" y="726" width="50" height="48" as="geometry" />
        </mxCell>
        <mxCell id="IkORrVACjVrQeEWIYYlO-28" value="&lt;font face=&quot;Tahoma&quot;&gt;Node Exporter&lt;/font&gt;" style="text;html=1;align=center;verticalAlign=middle;whiteSpace=wrap;rounded=0;" vertex="1" parent="1">
          <mxGeometry x="1043" y="735" width="60" height="30" as="geometry" />
        </mxCell>
        <mxCell id="IkORrVACjVrQeEWIYYlO-38" value="" style="rounded=0;whiteSpace=wrap;html=1;fillColor=none;strokeWidth=2;dashed=1;" vertex="1" parent="1">
          <mxGeometry x="745" y="500" width="410" height="91" as="geometry" />
        </mxCell>
        <mxCell id="IkORrVACjVrQeEWIYYlO-39" value="" style="rounded=0;whiteSpace=wrap;html=1;fillColor=none;" vertex="1" parent="1">
          <mxGeometry x="853" y="513" width="170" height="65" as="geometry" />
        </mxCell>
        <mxCell id="IkORrVACjVrQeEWIYYlO-40" value="&lt;font style=&quot;&quot; face=&quot;Tahoma&quot;&gt;Services&lt;/font&gt;" style="text;html=1;align=center;verticalAlign=middle;whiteSpace=wrap;rounded=0;" vertex="1" parent="1">
          <mxGeometry x="744" y="498.5" width="60" height="30" as="geometry" />
        </mxCell>
        <mxCell id="IkORrVACjVrQeEWIYYlO-42" value="" style="aspect=fixed;sketch=0;html=1;dashed=0;whitespace=wrap;fillColor=#2875E2;strokeColor=#ffffff;points=[[0.005,0.63,0],[0.1,0.2,0],[0.9,0.2,0],[0.5,0,0],[0.995,0.63,0],[0.72,0.99,0],[0.5,1,0],[0.28,0.99,0]];shape=mxgraph.kubernetes.icon2;prIcon=svc" vertex="1" parent="1">
          <mxGeometry x="858" y="521.5" width="50" height="48" as="geometry" />
        </mxCell>
        <mxCell id="IkORrVACjVrQeEWIYYlO-43" value="&lt;font style=&quot;&quot; face=&quot;Tahoma&quot;&gt;Monitoring Services&lt;br&gt;ClusterIP&lt;/font&gt;" style="text;html=1;align=center;verticalAlign=middle;whiteSpace=wrap;rounded=0;" vertex="1" parent="1">
          <mxGeometry x="920" y="530.5" width="60" height="30" as="geometry" />
        </mxCell>
        <mxCell id="IkORrVACjVrQeEWIYYlO-46" value="VKS" style="rounded=1;whiteSpace=wrap;html=1;fillColor=none;strokeWidth=2;" vertex="1" parent="1">
          <mxGeometry x="745" y="821" width="205" height="50" as="geometry" />
        </mxCell>
        <mxCell id="IkORrVACjVrQeEWIYYlO-47" style="edgeStyle=orthogonalEdgeStyle;rounded=0;orthogonalLoop=1;jettySize=auto;html=1;exitX=0.25;exitY=0;exitDx=0;exitDy=0;entryX=-0.002;entryY=0.412;entryDx=0;entryDy=0;entryPerimeter=0;" edge="1" parent="1" source="IkORrVACjVrQeEWIYYlO-46" target="IkORrVACjVrQeEWIYYlO-2">
          <mxGeometry relative="1" as="geometry">
            <Array as="points">
              <mxPoint x="770" y="821" />
              <mxPoint x="770" y="665" />
            </Array>
          </mxGeometry>
        </mxCell>
        <mxCell id="IkORrVACjVrQeEWIYYlO-51" value="&lt;font face=&quot;Tahoma&quot;&gt;Volume&lt;/font&gt;" style="text;html=1;align=center;verticalAlign=middle;whiteSpace=wrap;rounded=0;" vertex="1" parent="1">
          <mxGeometry x="965" y="816" width="60" height="30" as="geometry" />
        </mxCell>
        <mxCell id="IkORrVACjVrQeEWIYYlO-56" value="" style="rounded=0;whiteSpace=wrap;html=1;fillColor=none;" vertex="1" parent="1">
          <mxGeometry x="995" y="396.5" width="140" height="61" as="geometry" />
        </mxCell>
        <mxCell id="IkORrVACjVrQeEWIYYlO-57" value="" style="aspect=fixed;sketch=0;html=1;dashed=0;whitespace=wrap;fillColor=#2875E2;strokeColor=#ffffff;points=[[0.005,0.63,0],[0.1,0.2,0],[0.9,0.2,0],[0.5,0,0],[0.995,0.63,0],[0.72,0.99,0],[0.5,1,0],[0.28,0.99,0]];shape=mxgraph.kubernetes.icon2;prIcon=pod" vertex="1" parent="1">
          <mxGeometry x="1000" y="402.5" width="50" height="49" as="geometry" />
        </mxCell>
        <mxCell id="IkORrVACjVrQeEWIYYlO-58" value="&lt;font face=&quot;Tahoma&quot;&gt;OSSI&lt;/font&gt;" style="text;html=1;align=center;verticalAlign=middle;whiteSpace=wrap;rounded=0;" vertex="1" parent="1">
          <mxGeometry x="1053" y="411.5" width="60" height="31" as="geometry" />
        </mxCell>
        <mxCell id="IkORrVACjVrQeEWIYYlO-60" value="&lt;font style=&quot;&quot; face=&quot;Tahoma&quot;&gt;Deployment&lt;/font&gt;" style="text;html=1;align=center;verticalAlign=middle;whiteSpace=wrap;rounded=0;" vertex="1" parent="1">
          <mxGeometry x="980.5" y="363.5" width="60" height="31" as="geometry" />
        </mxCell>
        <mxCell id="IkORrVACjVrQeEWIYYlO-84" style="edgeStyle=orthogonalEdgeStyle;rounded=0;orthogonalLoop=1;jettySize=auto;html=1;exitX=0.5;exitY=0;exitDx=0;exitDy=0;entryX=0.5;entryY=1;entryDx=0;entryDy=0;" edge="1" parent="1" source="IkORrVACjVrQeEWIYYlO-61" target="IkORrVACjVrQeEWIYYlO-72">
          <mxGeometry relative="1" as="geometry" />
        </mxCell>
        <mxCell id="IkORrVACjVrQeEWIYYlO-61" value="" style="rounded=0;whiteSpace=wrap;html=1;fillColor=none;strokeWidth=2;dashed=1;" vertex="1" parent="1">
          <mxGeometry x="745" y="367" width="210" height="100" as="geometry" />
        </mxCell>
        <mxCell id="IkORrVACjVrQeEWIYYlO-62" value="" style="rounded=0;whiteSpace=wrap;html=1;fillColor=none;" vertex="1" parent="1">
          <mxGeometry x="770" y="391.5" width="155" height="65" as="geometry" />
        </mxCell>
        <mxCell id="IkORrVACjVrQeEWIYYlO-63" value="&lt;font style=&quot;&quot; face=&quot;Tahoma&quot;&gt;Services&lt;/font&gt;" style="text;html=1;align=center;verticalAlign=middle;whiteSpace=wrap;rounded=0;" vertex="1" parent="1">
          <mxGeometry x="746.5" y="361.5" width="60" height="31" as="geometry" />
        </mxCell>
        <mxCell id="IkORrVACjVrQeEWIYYlO-64" value="" style="aspect=fixed;sketch=0;html=1;dashed=0;whitespace=wrap;fillColor=#2875E2;strokeColor=#ffffff;points=[[0.005,0.63,0],[0.1,0.2,0],[0.9,0.2,0],[0.5,0,0],[0.995,0.63,0],[0.72,0.99,0],[0.5,1,0],[0.28,0.99,0]];shape=mxgraph.kubernetes.icon2;prIcon=svc" vertex="1" parent="1">
          <mxGeometry x="775" y="400" width="50" height="49" as="geometry" />
        </mxCell>
        <mxCell id="IkORrVACjVrQeEWIYYlO-65" value="&lt;font face=&quot;Tahoma&quot;&gt;OSSI&lt;/font&gt;&lt;div&gt;&lt;font face=&quot;Tahoma&quot;&gt;Service&lt;/font&gt;&lt;/div&gt;&lt;div&gt;&lt;font face=&quot;Tahoma&quot;&gt;LoadBalancer&lt;/font&gt;&lt;/div&gt;" style="text;html=1;align=center;verticalAlign=middle;whiteSpace=wrap;rounded=0;" vertex="1" parent="1">
          <mxGeometry x="837" y="409" width="60" height="31" as="geometry" />
        </mxCell>
        <mxCell id="IkORrVACjVrQeEWIYYlO-67" style="edgeStyle=orthogonalEdgeStyle;rounded=0;orthogonalLoop=1;jettySize=auto;html=1;exitX=0.75;exitY=0;exitDx=0;exitDy=0;entryX=0.442;entryY=0.99;entryDx=0;entryDy=0;entryPerimeter=0;" edge="1" parent="1" source="IkORrVACjVrQeEWIYYlO-38" target="IkORrVACjVrQeEWIYYlO-59">
          <mxGeometry relative="1" as="geometry" />
        </mxCell>
        <mxCell id="IkORrVACjVrQeEWIYYlO-71" value="Namespace" style="text;html=1;align=center;verticalAlign=middle;whiteSpace=wrap;rounded=0;" vertex="1" parent="1">
          <mxGeometry x="722" y="330" width="60" height="30" as="geometry" />
        </mxCell>
        <mxCell id="IkORrVACjVrQeEWIYYlO-72" value="" style="rounded=0;whiteSpace=wrap;html=1;strokeWidth=2;" vertex="1" parent="1">
          <mxGeometry x="733" y="250" width="234" height="60" as="geometry" />
        </mxCell>
        <mxCell id="IkORrVACjVrQeEWIYYlO-73" value="" style="aspect=fixed;sketch=0;html=1;dashed=0;whitespace=wrap;fillColor=#2875E2;strokeColor=#ffffff;points=[[0.005,0.63,0],[0.1,0.2,0],[0.9,0.2,0],[0.5,0,0],[0.995,0.63,0],[0.72,0.99,0],[0.5,1,0],[0.28,0.99,0]];shape=mxgraph.kubernetes.icon2;prIcon=svc" vertex="1" parent="1">
          <mxGeometry x="766" y="256" width="50" height="48" as="geometry" />
        </mxCell>
        <mxCell id="IkORrVACjVrQeEWIYYlO-78" value="MetalLB Service" style="text;html=1;align=center;verticalAlign=middle;whiteSpace=wrap;rounded=0;" vertex="1" parent="1">
          <mxGeometry x="818" y="265" width="107" height="30" as="geometry" />
        </mxCell>
        <mxCell id="IkORrVACjVrQeEWIYYlO-79" value="MetalLB Service" style="text;html=1;align=center;verticalAlign=middle;whiteSpace=wrap;rounded=0;" vertex="1" parent="1">
          <mxGeometry x="184.5" y="265" width="107" height="30" as="geometry" />
        </mxCell>
        <mxCell id="IkORrVACjVrQeEWIYYlO-81" style="edgeStyle=orthogonalEdgeStyle;rounded=0;orthogonalLoop=1;jettySize=auto;html=1;exitX=0.75;exitY=1;exitDx=0;exitDy=0;entryX=0.462;entryY=0;entryDx=0;entryDy=0;entryPerimeter=0;" edge="1" parent="1" source="eBvsmVMEIiwgclC12GJF-55" target="eBvsmVMEIiwgclC12GJF-93">
          <mxGeometry relative="1" as="geometry" />
        </mxCell>
      </root>
    </mxGraphModel>
  </diagram>
</mxfile>
